<svg xmlns="http://www.w3.org/2000/svg" width="24" height="25" viewBox="0 0 24 25" fill="none"><path fill-rule="evenodd" clip-rule="evenodd" d="M20.5664 5.06639C20.6408 4.992 20.6998 4.9037 20.74 4.80652C20.7803 4.70934 20.801 4.60518 20.801 4.49999C20.801 4.39479 20.7803 4.29063 20.74 4.19345C20.6998 4.09627 20.6408 4.00797 20.5664 3.93358C20.492 3.8592 20.4037 3.8002 20.3065 3.75995C20.2093 3.71969 20.1052 3.69897 20 3.69897C19.8948 3.69897 19.7906 3.71969 19.6935 3.75995C19.5963 3.8002 19.508 3.8592 19.4336 3.93358L12 11.3688L4.56639 3.93358C4.492 3.8592 4.4037 3.8002 4.30652 3.75995C4.20934 3.71969 4.10518 3.69897 3.99999 3.69897C3.89479 3.69897 3.79063 3.71969 3.69345 3.75995C3.59627 3.8002 3.50797 3.8592 3.43358 3.93358C3.3592 4.00797 3.3002 4.09627 3.25995 4.19345C3.21969 4.29063 3.19897 4.39479 3.19897 4.49999C3.19897 4.60518 3.21969 4.70934 3.25995 4.80652C3.3002 4.9037 3.3592 4.992 3.43358 5.06639L10.8688 12.5L3.43358 19.9336C3.28337 20.0838 3.19897 20.2875 3.19897 20.5C3.19897 20.7124 3.28337 20.9162 3.43358 21.0664C3.5838 21.2166 3.78754 21.301 3.99999 21.301C4.21243 21.301 4.41617 21.2166 4.56639 21.0664L12 13.6312L19.4336 21.0664C19.5838 21.2166 19.7875 21.301 20 21.301C20.2124 21.301 20.4162 21.2166 20.5664 21.0664C20.7166 20.9162 20.801 20.7124 20.801 20.5C20.801 20.2875 20.7166 20.0838 20.5664 19.9336L13.1312 12.5L20.5664 5.06639Z" fill="white"></path></svg>