<svg xmlns="http://www.w3.org/2000/svg" width="16" height="16" viewBox="0 0 16 16" fill="none"><path d="M4.12133 6.88871C3.46933 6.88871 3.33333 7.01671 3.33333 7.62937V8.74071C3.33333 9.35404 3.46933 9.48137 4.12133 9.48137H5.69666V13.926C5.69666 14.5394 5.83333 14.6667 6.48466 14.6667H8.06066C8.71266 14.6667 8.84866 14.5387 8.84866 13.926V9.48137H10.618C11.112 9.48137 11.2393 9.39137 11.3753 8.94404L11.7133 7.83337C11.946 7.06737 11.802 6.88871 10.9553 6.88871H8.84866V5.03737C8.84866 4.62804 9.20133 4.29604 9.636 4.29604H11.8787C12.5307 4.29604 12.6667 4.16871 12.6667 3.55604V2.07337C12.6667 1.46071 12.5307 1.33337 11.8787 1.33337H9.636C7.46066 1.33337 5.69666 2.99137 5.69666 5.03737V6.88871H4.12133Z" stroke="white" stroke-width="1.5" stroke-linecap="round" stroke-linejoin="round"></path></svg>