<?xml version="1.0" encoding="UTF-8"?>
<svg xmlns="http://www.w3.org/2000/svg" width="24" height="24" viewBox="0 0 24 24" fill="none">
  <path d="M6.182 10.333C5.204 10.333 5 10.525 5 11.444V13.111C5 14.031 5.204 14.222 6.182 14.222H8.545V20.889C8.545 21.809 8.75 22 9.727 22H12.091C13.069 22 13.273 21.808 13.273 20.889V14.222H15.927C16.668 14.222 16.859 14.087 17.063 13.416L17.57 11.75C17.919 10.601 17.703 10.333 16.433 10.333H13.273V7.556C13.273 6.942 13.802 6.444 14.454 6.444H17.818C18.796 6.444 19 6.253 19 5.334V3.11C19 2.191 18.796 2 17.818 2H14.454C11.191 2 8.545 4.487 8.545 7.556V10.333H6.182Z" stroke="#40C1AC" stroke-width="1.5" stroke-linecap="round" stroke-linejoin="round"></path>
</svg>
