<svg xmlns="http://www.w3.org/2000/svg" width="15" height="16" viewBox="0 0 15 16" fill="none"><path d="M5.53568 8.33733C3.98131 7.09733 2.87256 5.73333 2.26693 4.96667C2.07943 4.72933 2.01818 4.55533 1.98131 4.24933C1.85506 3.20133 1.79193 2.67733 2.08006 2.33867C2.36818 2 2.87756 2 3.89631 2H11.1038C12.1226 2 12.6319 2 12.9201 2.338C13.2082 2.67667 13.1451 3.20067 13.0188 4.24867C12.9813 4.55467 12.9201 4.72867 12.7332 4.966C12.1269 5.734 11.0163 7.10067 9.45818 8.34267C9.38613 8.40247 9.32657 8.47765 9.28331 8.5634C9.24005 8.64915 9.21403 8.74358 9.20693 8.84067C9.05256 10.6613 8.91006 11.6587 8.82131 12.1627C8.67818 12.9773 7.59631 13.4673 7.01631 13.904C6.67131 14.164 6.25256 13.8547 6.20818 13.452C6.04222 11.9177 5.90179 10.3803 5.78693 8.84067C5.78051 8.74266 5.75482 8.64719 5.71153 8.56047C5.66825 8.47375 5.60833 8.39773 5.53568 8.33733Z" stroke="white" stroke-width="1.5" stroke-linecap="round" stroke-linejoin="round"></path></svg>