<svg xmlns="http://www.w3.org/2000/svg" width="77" height="77" viewBox="0 0 77 77" fill="none"><path d="M38.5003 38.5H38.5292M12.8337 9.625H19.2503M19.2503 9.625H25.667M19.2503 9.625V22.4583M51.3337 9.625H57.7503M57.7503 9.625H64.167M57.7503 9.625V22.4583M16.042 67.375V62.5625C16.042 58.308 17.7321 54.2277 20.7405 51.2193C23.7489 48.2109 27.8291 46.5208 32.0837 46.5208M60.9587 67.375V62.5625C60.9587 58.308 59.2686 54.2277 56.2602 51.2193C53.2518 48.2109 49.1715 46.5208 44.917 46.5208M38.5003 22.4583C20.7807 22.4583 6.41699 25.3298 6.41699 28.875C6.41699 31.4609 14.0592 33.6875 25.0735 34.7045C27.0562 34.8874 28.4165 36.806 28.6283 38.7855C29.1769 43.9349 33.3157 48.125 38.5003 48.125C43.685 48.125 47.8237 43.9349 48.3724 38.7887C48.5841 36.806 49.9444 34.8874 51.9272 34.7045C62.9414 33.6875 70.5837 31.4609 70.5837 28.875C70.5837 25.3298 56.2199 22.4583 38.5003 22.4583Z" stroke="white" stroke-width="1.5" stroke-linecap="round" stroke-linejoin="round"></path></svg>