<svg xmlns="http://www.w3.org/2000/svg" width="77" height="77" viewBox="0 0 77 77" fill="none"><path d="M38.4997 70.5834C56.2193 70.5834 70.583 56.2196 70.583 38.5C70.583 20.7804 56.2193 6.41669 38.4997 6.41669C24.1328 6.41669 12.1079 15.8588 8.02051 28.875H16.0413" stroke="white" stroke-width="1.5" stroke-linecap="round" stroke-linejoin="round"></path><path d="M38.4998 25.6667V38.5L44.9165 44.9167M6.4165 38.5C6.4165 39.5802 6.46463 40.6496 6.56088 41.7084M28.8748 70.5834C27.7836 70.2219 26.7126 69.8021 25.6665 69.3257M10.2986 54.5417C9.67733 53.3402 9.12566 52.1041 8.6463 50.8393M15.4993 61.9401C16.4832 62.9989 17.528 63.986 18.6338 64.9014" stroke="white" stroke-width="1.5" stroke-linecap="round" stroke-linejoin="round"></path></svg>