<svg xmlns="http://www.w3.org/2000/svg" width="16" height="16" viewBox="0 0 16 16" fill="none"><g clip-path="url(#clip0_645_2003)"><path d="M8.21733 6.33337H7.66666C7.03799 6.33337 6.72399 6.33337 6.52866 6.52871C6.33333 6.72404 6.33333 7.03804 6.33333 7.66671V13.3334C6.33333 13.962 6.33333 14.276 6.52866 14.4714C6.72399 14.6667 7.03799 14.6667 7.66666 14.6667H7.99999C8.62866 14.6667 8.94266 14.6667 9.13799 14.4714C9.33333 14.276 9.33333 13.962 9.33333 13.3334V11C9.33333 9.89537 9.68533 9.00004 10.7253 9.00004C11.2453 9.00004 11.6667 9.44804 11.6667 10V13C11.6667 13.6287 11.6667 13.9427 11.862 14.138C12.0573 14.3334 12.3713 14.3334 13 14.3334H13.3327C13.9607 14.3334 14.2753 14.3334 14.4707 14.138C14.6653 13.9427 14.666 13.6287 14.666 13.0007L14.6667 9.33337C14.6667 7.67604 13.0907 6.33337 11.5313 6.33337C10.6433 6.33337 9.85133 6.76804 9.33333 7.44871C9.33333 7.02871 9.33333 6.81871 9.24199 6.66271C9.18423 6.564 9.10204 6.48181 9.00333 6.42404C8.84733 6.33271 8.63733 6.33271 8.21733 6.33271M2.99999 6.33337H2.66666C2.03799 6.33337 1.72399 6.33337 1.52866 6.52871C1.33333 6.72404 1.33333 7.03804 1.33333 7.66671V13.3334C1.33333 13.962 1.33333 14.276 1.52866 14.4714C1.72399 14.6667 2.03799 14.6667 2.66666 14.6667H2.99999C3.62866 14.6667 3.94266 14.6667 4.13799 14.4714C4.33333 14.276 4.33333 13.962 4.33333 13.3334V7.66671C4.33333 7.03804 4.33333 6.72404 4.13799 6.52871C3.94266 6.33337 3.62866 6.33337 2.99999 6.33337ZM4.33333 2.83337C4.33333 3.2312 4.17529 3.61273 3.89399 3.89403C3.61268 4.17534 3.23115 4.33337 2.83333 4.33337C2.4355 4.33337 2.05397 4.17534 1.77267 3.89403C1.49136 3.61273 1.33333 3.2312 1.33333 2.83337C1.33333 2.43555 1.49136 2.05402 1.77267 1.77271C2.05397 1.49141 2.4355 1.33337 2.83333 1.33337C3.23115 1.33337 3.61268 1.49141 3.89399 1.77271C4.17529 2.05402 4.33333 2.43555 4.33333 2.83337Z" stroke="white" stroke-width="1.5" stroke-linecap="round" stroke-linejoin="round"></path></g><defs><clipPath id="clip0_645_2003"><rect width="16" height="16" fill="white"></rect></clipPath></defs></svg>