<svg xmlns="http://www.w3.org/2000/svg" width="16" height="16" viewBox="0 0 16 16" fill="none"><path d="M6.66675 8.81933C6.76141 8.97444 6.87341 9.11977 7.00275 9.25533C7.37709 9.65217 7.87671 9.90794 8.41753 9.97958C8.95834 10.0512 9.50733 9.93435 9.97208 9.64866C10.1459 9.54199 10.3081 9.41088 10.4587 9.25533L12.6181 7.00733C13.5714 6.01399 13.5714 4.40466 12.6181 3.41133C12.396 3.17609 12.1282 2.98868 11.8311 2.8606C11.534 2.73251 11.2139 2.66644 10.8904 2.66644C10.5669 2.66644 10.2468 2.73251 9.94971 2.8606C9.65263 2.98868 9.38484 3.17609 9.16275 3.41133L8.68675 3.90666" stroke="white" stroke-width="1.5" stroke-linecap="round" stroke-linejoin="round"></path><path d="M7.31333 12.0933L6.83799 12.5887C6.61589 12.824 6.34806 13.0115 6.05092 13.1397C5.75378 13.2678 5.43359 13.3339 5.10999 13.3339C4.7864 13.3339 4.46621 13.2678 4.16907 13.1397C3.87193 13.0115 3.60409 12.824 3.38199 12.5887C2.42866 11.5953 2.42866 9.98534 3.38199 8.99267L5.54199 6.74467C5.76408 6.50943 6.03188 6.32203 6.32896 6.19394C6.62604 6.06585 6.94614 5.99979 7.26966 5.99979C7.59317 5.99979 7.91328 6.06585 8.21036 6.19394C8.50744 6.32203 8.77523 6.50943 8.99733 6.74467C9.12666 6.88022 9.23866 7.02556 9.33333 7.18067" stroke="white" stroke-width="1.5" stroke-linecap="round" stroke-linejoin="round"></path></svg>