<svg xmlns="http://www.w3.org/2000/svg" width="16" height="16" viewBox="0 0 16 16" fill="none"><path d="M1.33325 4L5.94192 6.61133C7.64125 7.574 8.35858 7.574 10.0579 6.61133L14.6666 4" stroke="white" stroke-width="1.5" stroke-linecap="round" stroke-linejoin="round"></path><path d="M1.34396 8.98398C1.38729 11.0273 1.40929 12.0493 2.16329 12.806C2.91729 13.5633 3.96662 13.5893 6.06596 13.642C7.35929 13.6753 8.64062 13.6753 9.93396 13.642C12.0333 13.5893 13.0826 13.5633 13.8366 12.806C14.5906 12.0493 14.6126 11.0273 14.6566 8.98398C14.67 8.32665 14.67 7.67332 14.6566 7.01598C14.6126 4.97265 14.5906 3.95065 13.8366 3.19399C13.0826 2.43665 12.0333 2.41065 9.93396 2.35799C8.64483 2.32546 7.35508 2.32546 6.06596 2.35799C3.96662 2.41065 2.91729 2.43665 2.16329 3.19399C1.40929 3.95065 1.38729 4.97265 1.34329 7.01598C1.32926 7.67191 1.32992 8.32806 1.34396 8.98398Z" stroke="white" stroke-width="1.5" stroke-linecap="round" stroke-linejoin="round"></path></svg>