<svg xmlns="http://www.w3.org/2000/svg" width="16" height="16" viewBox="0 0 16 16" fill="none"><path d="M1.33333 4L5.94199 6.61133C7.64133 7.574 8.35866 7.574 10.058 6.61133L14.6667 4" stroke="white" stroke-width="1.5" stroke-linecap="round" stroke-linejoin="round"></path><path d="M1.344 8.98402C1.38734 11.0273 1.40933 12.0493 2.16334 12.806C2.91734 13.5633 3.96667 13.5893 6.066 13.642C7.35934 13.6753 8.64067 13.6753 9.934 13.642C12.0333 13.5893 13.0827 13.5633 13.8367 12.806C14.5907 12.0493 14.6127 11.0273 14.6567 8.98402C14.67 8.32668 14.67 7.67335 14.6567 7.01602C14.6127 4.97268 14.5907 3.95068 13.8367 3.19402C13.0827 2.43668 12.0333 2.41068 9.934 2.35802C8.64487 2.32549 7.35513 2.32549 6.066 2.35802C3.96667 2.41068 2.91734 2.43668 2.16334 3.19402C1.40933 3.95068 1.38734 4.97268 1.34334 7.01602C1.3293 7.67194 1.32997 8.32809 1.344 8.98402Z" stroke="white" stroke-width="1.5" stroke-linecap="round" stroke-linejoin="round"></path></svg>