<svg xmlns="http://www.w3.org/2000/svg" width="15" height="16" viewBox="0 0 15 16" fill="none"><g clip-path="url(#clip0_2008_6036)"><path d="M8.75 9.33325L10.3125 10.9999M10.2706 12.3499C10.1803 12.2594 10.1079 12.1505 10.0578 12.0296C10.0077 11.9087 9.98086 11.7783 9.97891 11.6462C9.97696 11.514 9.99993 11.3828 10.0465 11.2602C10.093 11.1377 10.1621 11.0264 10.2497 10.933C10.3373 10.8395 10.4417 10.7658 10.5565 10.7161C10.6714 10.6665 10.7944 10.642 10.9184 10.6441C11.0423 10.6462 11.1645 10.6748 11.2778 10.7282C11.3912 10.7817 11.4933 10.8589 11.5781 10.9553L13.4794 12.9833C13.5697 13.0737 13.6421 13.1827 13.6922 13.3035C13.7423 13.4244 13.7691 13.5548 13.7711 13.687C13.773 13.8192 13.7501 13.9504 13.7035 14.0729C13.657 14.1954 13.5879 14.3067 13.5003 14.4002C13.4127 14.4937 13.3083 14.5674 13.1935 14.617C13.0786 14.6667 12.9556 14.6912 12.8316 14.6891C12.7077 14.687 12.5855 14.6584 12.4722 14.6049C12.3588 14.5515 12.2567 14.4743 12.1719 14.3779L10.2706 12.3499ZM10 5.99992C10 4.76224 9.53906 3.57526 8.71859 2.70009C7.89812 1.82492 6.78532 1.33325 5.625 1.33325C4.46468 1.33325 3.35188 1.82492 2.53141 2.70009C1.71094 3.57526 1.25 4.76224 1.25 5.99992C1.25 7.2376 1.71094 8.42458 2.53141 9.29975C3.35188 10.1749 4.46468 10.6666 5.625 10.6666C6.78532 10.6666 7.89812 10.1749 8.71859 9.29975C9.53906 8.42458 10 7.2376 10 5.99992Z" stroke="#656565" stroke-width="1.5" stroke-linecap="round" stroke-linejoin="round"></path></g><defs><clipPath id="clip0_2008_6036"><rect width="15" height="16" fill="white"></rect></clipPath></defs></svg>