<svg xmlns="http://www.w3.org/2000/svg" width="110" height="77" viewBox="0 0 110 77" fill="none"><path d="M41.7998 44.5H43.1162C46.7398 46.2172 50.7299 47.25 55 47.25C59.2691 47.25 63.2759 46.2174 66.8838 44.5H68.2002C78.8551 44.5001 87.4999 53.1449 87.5 63.7998V68.75C87.5 73.0285 84.0285 76.5 79.75 76.5H30.25C25.9715 76.5 22.5 73.0285 22.5 68.75V63.7998C22.5001 53.1449 31.1449 44.5001 41.7998 44.5ZM88 39H99C104.791 39 109.5 43.709 109.5 49.5V55C109.5 57.766 107.266 60 104.5 60H93.5889C92.4213 52.1176 87.7121 45.4624 81.0898 41.5996C82.9407 39.981 85.352 39 88 39ZM11 39H22C24.6477 39 27.0584 39.9812 28.9092 41.5996C22.287 45.4626 17.5788 52.1183 16.3955 60H5.5C2.73395 60 0.5 57.766 0.5 55V49.5C0.5 43.709 5.20896 39 11 39ZM55 0.5C65.3629 0.5 73.75 8.88708 73.75 19.25C73.75 29.6129 65.3629 38 55 38C44.6371 38 36.25 29.6129 36.25 19.25C36.25 8.88708 44.6371 0.5 55 0.5ZM16.5 11.5C22.291 11.5 27 16.209 27 22C27 27.791 22.291 32.5 16.5 32.5C10.709 32.5 6 27.791 6 22C6 16.209 10.709 11.5 16.5 11.5ZM93.5 11.5C99.291 11.5 104 16.209 104 22C104 27.791 99.291 32.5 93.5 32.5C87.709 32.5 83 27.791 83 22C83 16.209 87.709 11.5 93.5 11.5Z" stroke="white"></path></svg>